STARTFONT 2.3
FONT -FontForge-Courgette-Book-R-Normal--8-80-72-72-P-41-ISO10646-1
SIZE 8 72 72  2
FONTBOUNDINGBOX 11 10 -2 -2
COMMENT "Generated by fontforge, http://fontforge.sourceforge.net"
COMMENT "Copyright (c) 2012, Sorkin Type Co (www.sorkintype.com) with Reserved Font Name "Courgette"."
STARTPROPERTIES 41
FOUNDRY "FontForge"
FAMILY_NAME "Courgette"
WEIGHT_NAME "Book"
SLANT "R"
SETWIDTH_NAME "Normal"
ADD_STYLE_NAME ""
PIXEL_SIZE 8
POINT_SIZE 80
RESOLUTION_X 72
RESOLUTION_Y 72
SPACING "P"
AVERAGE_WIDTH 41
CHARSET_REGISTRY "ISO10646"
CHARSET_ENCODING "1"
FONTNAME_REGISTRY ""
CHARSET_COLLECTIONS "ISO8859-2 ISO8859-9 ISO8859-4 ISO10646-1"
BITS_PER_PIXEL 2
FONT_NAME "Courgette-Regular"
FACE_NAME "Courgette Regular"
COPYRIGHT "Copyright (c) 2012, Sorkin Type Co (www.sorkintype.com) with Reserved Font Name "Courgette"."
FONT_VERSION "1.002"
FONT_ASCENT 6
FONT_DESCENT 2
UNDERLINE_POSITION -1
UNDERLINE_THICKNESS 1
X_HEIGHT 3
CAP_HEIGHT 5
DEFAULT_CHAR 1
RAW_ASCENT 799
RAW_DESCENT 200
NORM_SPACE 2
RELATIVE_WEIGHT 40
RELATIVE_SETWIDTH 50
SUPERSCRIPT_X 0
SUPERSCRIPT_Y 3
SUPERSCRIPT_SIZE 5
SUBSCRIPT_X 0
SUBSCRIPT_Y 1
SUBSCRIPT_SIZE 5
AVG_LOWERCASE_WIDTH 38
AVG_UPPERCASE_WIDTH 47
ENDPROPERTIES
CHARS 407
STARTCHAR .null.dup1
ENCODING 0
SWIDTH 0 0
DWIDTH 0 0
BBX 1 1 0 0
BITMAP
00
ENDCHAR
STARTCHAR uni0001
ENCODING 1
SWIDTH 0 0
DWIDTH 0 0
BBX 1 1 0 0
BITMAP
00
ENDCHAR
STARTCHAR uni0002
ENCODING 2
SWIDTH 0 0
DWIDTH 0 0
BBX 1 1 0 0
BITMAP
00
ENDCHAR
STARTCHAR uni0003
ENCODING 3
SWIDTH 0 0
DWIDTH 0 0
BBX 1 1 0 0
BITMAP
00
ENDCHAR
STARTCHAR uni0004
ENCODING 4
SWIDTH 0 0
DWIDTH 0 0
BBX 1 1 0 0
BITMAP
00
ENDCHAR
STARTCHAR uni0005
ENCODING 5
SWIDTH 0 0
DWIDTH 0 0
BBX 1 1 0 0
BITMAP
00
ENDCHAR
STARTCHAR uni0006
ENCODING 6
SWIDTH 0 0
DWIDTH 0 0
BBX 1 1 0 0
BITMAP
00
ENDCHAR
STARTCHAR uni0007
ENCODING 7
SWIDTH 0 0
DWIDTH 0 0
BBX 1 1 0 0
BITMAP
00
ENDCHAR
STARTCHAR uni0008
ENCODING 8
SWIDTH 0 0
DWIDTH 0 0
BBX 1 1 0 0
BITMAP
00
ENDCHAR
STARTCHAR uni0009
ENCODING 9
SWIDTH 0 0
DWIDTH 0 0
BBX 1 1 0 0
BITMAP
00
ENDCHAR
STARTCHAR nonmarkingreturn
ENCODING 13
SWIDTH 0 0
DWIDTH 0 0
BBX 1 1 0 0
BITMAP
00
ENDCHAR
STARTCHAR uni0015
ENCODING 21
SWIDTH 0 0
DWIDTH 0 0
BBX 1 1 0 0
BITMAP
00
ENDCHAR
STARTCHAR uni0016
ENCODING 22
SWIDTH 0 0
DWIDTH 0 0
BBX 1 1 0 0
BITMAP
00
ENDCHAR
STARTCHAR uni0017
ENCODING 23
SWIDTH 0 0
DWIDTH 0 0
BBX 1 1 0 0
BITMAP
00
ENDCHAR
STARTCHAR uni0018
ENCODING 24
SWIDTH 0 0
DWIDTH 0 0
BBX 1 1 0 0
BITMAP
00
ENDCHAR
STARTCHAR uni0019
ENCODING 25
SWIDTH 0 0
DWIDTH 0 0
BBX 1 1 0 0
BITMAP
00
ENDCHAR
STARTCHAR space
ENCODING 32
SWIDTH 307 0
DWIDTH 2 0
BBX 1 1 0 0
BITMAP
00
ENDCHAR
STARTCHAR exclam
ENCODING 33
SWIDTH 417 0
DWIDTH 3 0
BBX 4 6 0 0
BITMAP
09
0C
14
20
10
60
ENDCHAR
STARTCHAR quotedbl
ENCODING 34
SWIDTH 437 0
DWIDTH 4 0
BBX 3 2 1 4
BITMAP
98
94
ENDCHAR
STARTCHAR numbersign
ENCODING 35
SWIDTH 725 0
DWIDTH 6 0
BBX 6 6 0 0
BITMAP
0250
0580
2E90
6B80
1200
1100
ENDCHAR
STARTCHAR dollar
ENCODING 36
SWIDTH 545 0
DWIDTH 4 0
BBX 5 8 0 -1
BITMAP
0140
0A40
2580
2640
1800
4800
6800
1000
ENDCHAR
STARTCHAR percent
ENCODING 37
SWIDTH 876 0
DWIDTH 7 0
BBX 7 6 0 0
BITMAP
2820
5990
2540
0660
1894
20A0
ENDCHAR
STARTCHAR ampersand
ENCODING 38
SWIDTH 563 0
DWIDTH 5 0
BBX 5 6 0 0
BITMAP
1A40
3140
2200
2400
9640
6800
ENDCHAR
STARTCHAR quotesingle
ENCODING 39
SWIDTH 231 0
DWIDTH 2 0
BBX 2 2 1 4
BITMAP
90
80
ENDCHAR
STARTCHAR parenleft
ENCODING 40
SWIDTH 478 0
DWIDTH 4 0
BBX 4 9 1 -2
BITMAP
05
14
20
90
C0
80
80
80
50
ENDCHAR
STARTCHAR parenright
ENCODING 41
SWIDTH 478 0
DWIDTH 4 0
BBX 4 9 -1 -2
BITMAP
05
02
02
02
03
06
08
14
50
ENDCHAR
STARTCHAR asterisk
ENCODING 42
SWIDTH 518 0
DWIDTH 4 0
BBX 3 3 1 3
BITMAP
20
68
54
ENDCHAR
STARTCHAR plus
ENCODING 43
SWIDTH 617 0
DWIDTH 5 0
BBX 5 4 0 1
BITMAP
0400
0800
6A40
0800
ENDCHAR
STARTCHAR comma
ENCODING 44
SWIDTH 312 0
DWIDTH 3 0
BBX 2 3 0 -1
BITMAP
40
50
80
ENDCHAR
STARTCHAR hyphen
ENCODING 45
SWIDTH 452 0
DWIDTH 4 0
BBX 2 1 1 2
BITMAP
A0
ENDCHAR
STARTCHAR period
ENCODING 46
SWIDTH 270 0
DWIDTH 2 0
BBX 2 1 0 0
BITMAP
90
ENDCHAR
STARTCHAR slash
ENCODING 47
SWIDTH 405 0
DWIDTH 3 0
BBX 6 9 -1 -1
BITMAP
0010
0090
0080
0200
0600
0800
1400
2000
5000
ENDCHAR
STARTCHAR zero
ENCODING 48
SWIDTH 621 0
DWIDTH 5 0
BBX 5 6 0 0
BITMAP
0680
1880
3080
6180
5200
6900
ENDCHAR
STARTCHAR one
ENCODING 49
SWIDTH 405 0
DWIDTH 3 0
BBX 4 6 0 0
BITMAP
1D
18
08
14
20
50
ENDCHAR
STARTCHAR two
ENCODING 50
SWIDTH 524 0
DWIDTH 4 0
BBX 5 6 0 0
BITMAP
1A00
3240
1600
1800
6000
A900
ENDCHAR
STARTCHAR three
ENCODING 51
SWIDTH 537 0
DWIDTH 4 0
BBX 5 6 0 0
BITMAP
1A00
3140
1600
0900
5500
6800
ENDCHAR
STARTCHAR four
ENCODING 52
SWIDTH 529 0
DWIDTH 4 0
BBX 4 6 0 0
BITMAP
18
25
63
6A
08
14
ENDCHAR
STARTCHAR five
ENCODING 53
SWIDTH 540 0
DWIDTH 4 0
BBX 5 6 0 0
BITMAP
0A80
1400
3A00
0300
4600
6800
ENDCHAR
STARTCHAR six
ENCODING 54
SWIDTH 554 0
DWIDTH 4 0
BBX 5 6 0 0
BITMAP
0A40
2540
3900
6200
5200
2800
ENDCHAR
STARTCHAR seven
ENCODING 55
SWIDTH 473 0
DWIDTH 4 0
BBX 4 6 1 0
BITMAP
A9
18
20
90
C0
80
ENDCHAR
STARTCHAR eight
ENCODING 56
SWIDTH 524 0
DWIDTH 4 0
BBX 5 6 0 0
BITMAP
1A00
2240
2600
2C00
5500
6800
ENDCHAR
STARTCHAR nine
ENCODING 57
SWIDTH 554 0
DWIDTH 4 0
BBX 5 6 0 0
BITMAP
1A00
2140
2240
2B00
4600
6800
ENDCHAR
STARTCHAR colon
ENCODING 58
SWIDTH 312 0
DWIDTH 3 0
BBX 2 4 0 0
BITMAP
10
20
00
90
ENDCHAR
STARTCHAR semicolon
ENCODING 59
SWIDTH 312 0
DWIDTH 3 0
BBX 2 5 0 -1
BITMAP
30
00
40
50
80
ENDCHAR
STARTCHAR less
ENCODING 60
SWIDTH 637 0
DWIDTH 5 0
BBX 4 4 1 0
BITMAP
19
90
A0
09
ENDCHAR
STARTCHAR equal
ENCODING 61
SWIDTH 617 0
DWIDTH 5 0
BBX 5 2 0 2
BITMAP
2A40
6A40
ENDCHAR
STARTCHAR greater
ENCODING 62
SWIDTH 606 0
DWIDTH 5 0
BBX 5 4 0 0
BITMAP
2400
0640
0A00
6000
ENDCHAR
STARTCHAR question
ENCODING 63
SWIDTH 516 0
DWIDTH 4 0
BBX 5 6 0 0
BITMAP
0A00
1640
0A00
2400
1000
6000
ENDCHAR
STARTCHAR at
ENCODING 64
SWIDTH 905 0
DWIDTH 7 0
BBX 7 7 0 -1
BITMAP
06A4
1408
2158
5988
9990
6000
1940
ENDCHAR
STARTCHAR A
ENCODING 65
SWIDTH 615 0
DWIDTH 5 0
BBX 6 6 -1 0
BITMAP
0070
0160
0660
0AE0
1480
60D0
ENDCHAR
STARTCHAR B
ENCODING 66
SWIDTH 551 0
DWIDTH 4 0
BBX 5 6 0 0
BITMAP
2A40
2480
3240
7A00
9200
6900
ENDCHAR
STARTCHAR C
ENCODING 67
SWIDTH 533 0
DWIDTH 4 0
BBX 5 6 0 0
BITMAP
0A80
2480
6240
5000
9000
6900
ENDCHAR
STARTCHAR D
ENCODING 68
SWIDTH 630 0
DWIDTH 5 0
BBX 5 6 0 0
BITMAP
2A40
1480
2480
6180
5200
6800
ENDCHAR
STARTCHAR E
ENCODING 69
SWIDTH 509 0
DWIDTH 4 0
BBX 5 6 0 0
BITMAP
1A40
3580
2100
2800
9000
6900
ENDCHAR
STARTCHAR F
ENCODING 70
SWIDTH 518 0
DWIDTH 4 0
BBX 5 6 0 0
BITMAP
6A80
4800
0800
2900
2000
5000
ENDCHAR
STARTCHAR G
ENCODING 71
SWIDTH 598 0
DWIDTH 5 0
BBX 5 6 0 0
BITMAP
0A80
2580
6100
5740
9200
6800
ENDCHAR
STARTCHAR H
ENCODING 72
SWIDTH 668 0
DWIDTH 5 0
BBX 6 6 0 0
BITMAP
2860
1490
2AD0
2180
5240
8240
ENDCHAR
STARTCHAR I
ENCODING 73
SWIDTH 327 0
DWIDTH 3 0
BBX 3 6 0 0
BITMAP
28
18
24
20
60
80
ENDCHAR
STARTCHAR J
ENCODING 74
SWIDTH 393 0
DWIDTH 3 0
BBX 5 8 -1 -2
BITMAP
1A40
1240
0300
0600
0900
1800
2000
9000
ENDCHAR
STARTCHAR K
ENCODING 75
SWIDTH 616 0
DWIDTH 5 0
BBX 5 6 0 0
BITMAP
6480
2480
2600
3800
9A00
8240
ENDCHAR
STARTCHAR L
ENCODING 76
SWIDTH 517 0
DWIDTH 4 0
BBX 5 6 0 0
BITMAP
0A40
1940
2600
2000
9000
EA00
ENDCHAR
STARTCHAR M
ENCODING 77
SWIDTH 931 0
DWIDTH 7 0
BBX 9 6 -1 0
BITMAP
009240
029A00
05D600
09A500
21D900
518600
ENDCHAR
STARTCHAR N
ENCODING 78
SWIDTH 708 0
DWIDTH 6 0
BBX 6 6 0 0
BITMAP
0930
1920
2920
5650
8280
8240
ENDCHAR
STARTCHAR O
ENCODING 79
SWIDTH 655 0
DWIDTH 5 0
BBX 6 6 0 0
BITMAP
0A80
2890
3090
60C0
5240
2900
ENDCHAR
STARTCHAR P
ENCODING 80
SWIDTH 553 0
DWIDTH 4 0
BBX 5 6 0 0
BITMAP
2A40
18C0
2640
3900
5000
8000
ENDCHAR
STARTCHAR Q
ENCODING 81
SWIDTH 655 0
DWIDTH 5 0
BBX 6 7 0 -1
BITMAP
0A80
2490
2080
6180
6200
1D00
0190
ENDCHAR
STARTCHAR R
ENCODING 82
SWIDTH 623 0
DWIDTH 5 0
BBX 5 6 0 0
BITMAP
2A40
18C0
2580
3900
5500
8240
ENDCHAR
STARTCHAR S
ENCODING 83
SWIDTH 474 0
DWIDTH 4 0
BBX 5 6 0 0
BITMAP
1A00
3140
3200
2400
4800
A400
ENDCHAR
STARTCHAR T
ENCODING 84
SWIDTH 471 0
DWIDTH 4 0
BBX 5 6 0 0
BITMAP
6A80
4900
0C00
1800
2400
6000
ENDCHAR
STARTCHAR U
ENCODING 85
SWIDTH 624 0
DWIDTH 5 0
BBX 6 6 0 0
BITMAP
1850
14C0
2180
6340
8A00
A240
ENDCHAR
STARTCHAR V
ENCODING 86
SWIDTH 587 0
DWIDTH 5 0
BBX 6 6 0 0
BITMAP
2860
0860
2480
2240
6800
6000
ENDCHAR
STARTCHAR W
ENCODING 87
SWIDTH 941 0
DWIDTH 8 0
BBX 8 6 0 0
BITMAP
2802
1853
26C2
2645
6A48
61A0
ENDCHAR
STARTCHAR X
ENCODING 88
SWIDTH 552 0
DWIDTH 4 0
BBX 6 6 0 0
BITMAP
1890
1A40
1D00
1C00
2900
8640
ENDCHAR
STARTCHAR Y
ENCODING 89
SWIDTH 580 0
DWIDTH 5 0
BBX 6 8 0 -2
BITMAP
1850
24C0
2180
5340
8A00
A500
0800
6000
ENDCHAR
STARTCHAR Z
ENCODING 90
SWIDTH 501 0
DWIDTH 4 0
BBX 5 6 0 0
BITMAP
2A80
0340
0D00
2400
9000
E900
ENDCHAR
STARTCHAR bracketleft
ENCODING 91
SWIDTH 396 0
DWIDTH 3 0
BBX 4 9 0 -2
BITMAP
06
09
08
14
20
20
50
80
90
ENDCHAR
STARTCHAR backslash
ENCODING 92
SWIDTH 464 0
DWIDTH 4 0
BBX 3 9 0 -1
BITMAP
40
50
50
20
20
14
04
08
08
ENDCHAR
STARTCHAR bracketright
ENCODING 93
SWIDTH 394 0
DWIDTH 3 0
BBX 4 9 0 -2
BITMAP
05
05
08
08
14
20
20
50
80
ENDCHAR
STARTCHAR asciicircum
ENCODING 94
SWIDTH 540 0
DWIDTH 4 0
BBX 3 4 1 2
BITMAP
20
64
88
04
ENDCHAR
STARTCHAR underscore
ENCODING 95
SWIDTH 530 0
DWIDTH 4 0
BBX 5 1 -1 -2
BITMAP
AA80
ENDCHAR
STARTCHAR grave
ENCODING 96
SWIDTH 219 0
DWIDTH 2 0
BBX 2 2 0 4
BITMAP
90
50
ENDCHAR
STARTCHAR a
ENCODING 97
SWIDTH 541 0
DWIDTH 4 0
BBX 5 4 0 0
BITMAP
1A40
6200
9900
6A00
ENDCHAR
STARTCHAR b
ENCODING 98
SWIDTH 525 0
DWIDTH 4 0
BBX 4 6 0 0
BITMAP
24
20
3A
63
86
68
ENDCHAR
STARTCHAR c
ENCODING 99
SWIDTH 465 0
DWIDTH 4 0
BBX 4 4 0 0
BITMAP
29
65
90
68
ENDCHAR
STARTCHAR d
ENCODING 100
SWIDTH 557 0
DWIDTH 4 0
BBX 5 7 0 0
BITMAP
0040
0080
0180
1B40
6200
9A00
6600
ENDCHAR
STARTCHAR e
ENCODING 101
SWIDTH 471 0
DWIDTH 4 0
BBX 4 4 0 0
BITMAP
19
65
A4
68
ENDCHAR
STARTCHAR f
ENCODING 102
SWIDTH 393 0
DWIDTH 3 0
BBX 5 8 0 -1
BITMAP
0600
0A40
1400
7900
2000
5000
8000
8000
ENDCHAR
STARTCHAR g
ENCODING 103
SWIDTH 526 0
DWIDTH 4 0
BBX 4 6 0 -2
BITMAP
16
63
9A
69
08
20
ENDCHAR
STARTCHAR h
ENCODING 104
SWIDTH 555 0
DWIDTH 4 0
BBX 4 7 0 0
BITMAP
04
18
14
27
36
95
86
ENDCHAR
STARTCHAR i
ENCODING 105
SWIDTH 286 0
DWIDTH 2 0
BBX 3 6 0 0
BITMAP
14
00
30
20
90
90
ENDCHAR
STARTCHAR j
ENCODING 106
SWIDTH 281 0
DWIDTH 2 0
BBX 4 8 -1 -2
BITMAP
09
00
0C
08
14
20
60
80
ENDCHAR
STARTCHAR k
ENCODING 107
SWIDTH 497 0
DWIDTH 4 0
BBX 4 7 0 0
BITMAP
04
18
14
23
29
A4
89
ENDCHAR
STARTCHAR l
ENCODING 108
SWIDTH 279 0
DWIDTH 2 0
BBX 3 7 0 0
BITMAP
04
14
24
20
60
90
90
ENDCHAR
STARTCHAR m
ENCODING 109
SWIDTH 814 0
DWIDTH 7 0
BBX 6 4 0 0
BITMAP
3670
3660
9660
8860
ENDCHAR
STARTCHAR n
ENCODING 110
SWIDTH 561 0
DWIDTH 4 0
BBX 4 4 0 0
BITMAP
37
36
95
86
ENDCHAR
STARTCHAR o
ENCODING 111
SWIDTH 514 0
DWIDTH 4 0
BBX 4 4 0 0
BITMAP
2A
62
96
68
ENDCHAR
STARTCHAR p
ENCODING 112
SWIDTH 550 0
DWIDTH 4 0
BBX 5 6 -1 -2
BITMAP
0A80
1CC0
2580
2A00
2000
5000
ENDCHAR
STARTCHAR q
ENCODING 113
SWIDTH 533 0
DWIDTH 4 0
BBX 5 6 0 -2
BITMAP
1A40
6300
9A00
6800
0800
0800
ENDCHAR
STARTCHAR r
ENCODING 114
SWIDTH 407 0
DWIDTH 3 0
BBX 4 4 0 0
BITMAP
2A
34
60
80
ENDCHAR
STARTCHAR s
ENCODING 115
SWIDTH 423 0
DWIDTH 3 0
BBX 4 4 0 0
BITMAP
29
24
24
A4
ENDCHAR
STARTCHAR t
ENCODING 116
SWIDTH 358 0
DWIDTH 3 0
BBX 3 5 0 0
BITMAP
18
38
20
50
64
ENDCHAR
STARTCHAR u
ENCODING 117
SWIDTH 553 0
DWIDTH 4 0
BBX 5 4 0 0
BITMAP
3240
2600
9900
A600
ENDCHAR
STARTCHAR v
ENCODING 118
SWIDTH 510 0
DWIDTH 4 0
BBX 4 4 0 0
BITMAP
32
22
95
A4
ENDCHAR
STARTCHAR w
ENCODING 119
SWIDTH 750 0
DWIDTH 6 0
BBX 6 4 0 0
BITMAP
3220
2620
5950
9640
ENDCHAR
STARTCHAR x
ENCODING 120
SWIDTH 467 0
DWIDTH 4 0
BBX 4 4 0 0
BITMAP
26
38
34
98
ENDCHAR
STARTCHAR y
ENCODING 121
SWIDTH 549 0
DWIDTH 4 0
BBX 5 6 0 -2
BITMAP
3240
2300
9A00
A900
0800
2000
ENDCHAR
STARTCHAR z
ENCODING 122
SWIDTH 430 0
DWIDTH 3 0
BBX 4 4 0 0
BITMAP
2A
18
60
A8
ENDCHAR
STARTCHAR braceleft
ENCODING 123
SWIDTH 424 0
DWIDTH 3 0
BBX 4 9 0 -2
BITMAP
02
05
08
08
24
20
20
50
50
ENDCHAR
STARTCHAR bar
ENCODING 124
SWIDTH 306 0
DWIDTH 2 0
BBX 1 9 1 -1
BITMAP
40
80
80
80
80
80
80
80
80
ENDCHAR
STARTCHAR braceright
ENCODING 125
SWIDTH 424 0
DWIDTH 3 0
BBX 4 9 0 -2
BITMAP
05
05
08
08
18
20
60
90
80
ENDCHAR
STARTCHAR asciitilde
ENCODING 126
SWIDTH 624 0
DWIDTH 5 0
BBX 5 2 0 2
BITMAP
2840
4640
ENDCHAR
STARTCHAR nonbreakingspace
ENCODING 160
SWIDTH 293 0
DWIDTH 2 0
BBX 1 1 0 0
BITMAP
00
ENDCHAR
STARTCHAR exclamdown
ENCODING 161
SWIDTH 417 0
DWIDTH 3 0
BBX 3 6 0 -1
BITMAP
0C
04
20
60
90
80
ENDCHAR
STARTCHAR cent
ENCODING 162
SWIDTH 487 0
DWIDTH 4 0
BBX 4 6 0 0
BITMAP
02
1A
26
60
28
10
ENDCHAR
STARTCHAR sterling
ENCODING 163
SWIDTH 665 0
DWIDTH 5 0
BBX 6 6 0 0
BITMAP
0290
0650
0980
2D00
6400
AA80
ENDCHAR
STARTCHAR currency
ENCODING 164
SWIDTH 572 0
DWIDTH 5 0
BBX 5 5 0 1
BITMAP
0440
1A40
2200
2200
6900
ENDCHAR
STARTCHAR yen
ENCODING 165
SWIDTH 583 0
DWIDTH 5 0
BBX 6 6 0 0
BITMAP
6090
1640
0A00
1D00
2900
1400
ENDCHAR
STARTCHAR brokenbar
ENCODING 166
SWIDTH 292 0
DWIDTH 2 0
BBX 1 9 1 -1
BITMAP
40
80
80
80
00
40
80
80
80
ENDCHAR
STARTCHAR section
ENCODING 167
SWIDTH 583 0
DWIDTH 5 0
BBX 5 9 0 -2
BITMAP
0540
0C80
0D40
2900
6600
3200
2800
8800
6000
ENDCHAR
STARTCHAR dieresis
ENCODING 168
SWIDTH 412 0
DWIDTH 3 0
BBX 4 1 0 5
BITMAP
99
ENDCHAR
STARTCHAR copyright
ENCODING 169
SWIDTH 871 0
DWIDTH 7 0
BBX 7 6 0 0
BITMAP
0AA0
2694
6988
5814
2660
1A80
ENDCHAR
STARTCHAR ordfeminine
ENCODING 170
SWIDTH 564 0
DWIDTH 5 0
BBX 4 4 1 2
BITMAP
29
88
98
98
ENDCHAR
STARTCHAR guillemotleft
ENCODING 171
SWIDTH 662 0
DWIDTH 5 0
BBX 5 3 0 1
BITMAP
1540
6600
2640
ENDCHAR
STARTCHAR logicalnot
ENCODING 172
SWIDTH 729 0
DWIDTH 6 0
BBX 4 3 1 0
BITMAP
AA
02
01
ENDCHAR
STARTCHAR uni00AD
ENCODING 173
SWIDTH 833 0
DWIDTH 7 0
BBX 1 1 0 0
BITMAP
00
ENDCHAR
STARTCHAR registered
ENCODING 174
SWIDTH 742 0
DWIDTH 6 0
BBX 6 5 0 1
BITMAP
0A80
2660
5A20
2590
1540
ENDCHAR
STARTCHAR macron
ENCODING 175
SWIDTH 392 0
DWIDTH 3 0
BBX 3 1 0 4
BITMAP
68
ENDCHAR
STARTCHAR degree
ENCODING 176
SWIDTH 405 0
DWIDTH 3 0
BBX 3 3 1 3
BITMAP
A4
A4
50
ENDCHAR
STARTCHAR plusminus
ENCODING 177
SWIDTH 617 0
DWIDTH 5 0
BBX 5 5 0 0
BITMAP
0800
6A40
0800
0400
6A40
ENDCHAR
STARTCHAR twosuperior
ENCODING 178
SWIDTH 458 0
DWIDTH 4 0
BBX 4 4 0 2
BITMAP
1A
16
14
68
ENDCHAR
STARTCHAR threesuperior
ENCODING 179
SWIDTH 430 0
DWIDTH 3 0
BBX 3 4 1 2
BITMAP
68
64
60
50
ENDCHAR
STARTCHAR acute
ENCODING 180
SWIDTH 322 0
DWIDTH 3 0
BBX 2 2 1 4
BITMAP
50
80
ENDCHAR
STARTCHAR mu
ENCODING 181
SWIDTH 618 0
DWIDTH 5 0
BBX 6 6 -1 -2
BITMAP
0960
0890
2580
2990
2000
5000
ENDCHAR
STARTCHAR paragraph
ENCODING 182
SWIDTH 739 0
DWIDTH 6 0
BBX 7 7 0 -1
BITMAP
06A4
1F60
1F20
0A50
0980
9880
6100
ENDCHAR
STARTCHAR periodcentered
ENCODING 183
SWIDTH 353 0
DWIDTH 3 0
BBX 1 1 1 2
BITMAP
C0
ENDCHAR
STARTCHAR cedilla
ENCODING 184
SWIDTH 301 0
DWIDTH 2 0
BBX 2 2 0 -2
BITMAP
20
60
ENDCHAR
STARTCHAR onesuperior
ENCODING 185
SWIDTH 403 0
DWIDTH 3 0
BBX 2 4 1 2
BITMAP
70
60
50
80
ENDCHAR
STARTCHAR ordmasculine
ENCODING 186
SWIDTH 498 0
DWIDTH 4 0
BBX 3 4 1 2
BITMAP
24
88
98
50
ENDCHAR
STARTCHAR guillemotright
ENCODING 187
SWIDTH 665 0
DWIDTH 5 0
BBX 5 3 0 1
BITMAP
2200
1980
5500
ENDCHAR
STARTCHAR onequarter
ENCODING 188
SWIDTH 988 0
DWIDTH 8 0
BBX 6 7 1 0
BITMAP
0040
7140
6200
5980
89A0
21B0
5040
ENDCHAR
STARTCHAR onehalf
ENCODING 189
SWIDTH 988 0
DWIDTH 8 0
BBX 7 6 1 0
BITMAP
7180
6200
55A4
88A4
2090
52A0
ENDCHAR
STARTCHAR threequarters
ENCODING 190
SWIDTH 1007 0
DWIDTH 8 0
BBX 8 7 0 0
BITMAP
0010
2920
1990
59A4
5625
0529
0814
ENDCHAR
STARTCHAR questiondown
ENCODING 191
SWIDTH 516 0
DWIDTH 4 0
BBX 4 6 0 -2
BITMAP
06
04
18
60
88
64
ENDCHAR
STARTCHAR Agrave
ENCODING 192
SWIDTH 615 0
DWIDTH 5 0
BBX 6 8 -1 0
BITMAP
0050
0010
0070
0160
0660
0AE0
1480
60D0
ENDCHAR
STARTCHAR Aacute
ENCODING 193
SWIDTH 615 0
DWIDTH 5 0
BBX 7 8 -1 0
BITMAP
0014
0010
0070
0160
0660
0AE0
1480
60D0
ENDCHAR
STARTCHAR Acircumflex
ENCODING 194
SWIDTH 615 0
DWIDTH 5 0
BBX 7 8 -1 0
BITMAP
0024
0044
0070
0160
0660
0AE0
1480
60D0
ENDCHAR
STARTCHAR Atilde
ENCODING 195
SWIDTH 615 0
DWIDTH 5 0
BBX 7 8 -1 0
BITMAP
0064
0064
0070
0160
0660
0AE0
1480
60D0
ENDCHAR
STARTCHAR Adieresis
ENCODING 196
SWIDTH 615 0
DWIDTH 5 0
BBX 7 8 -1 0
BITMAP
0044
0088
0070
0160
0660
0AE0
1480
60D0
ENDCHAR
STARTCHAR Aring
ENCODING 197
SWIDTH 615 0
DWIDTH 5 0
BBX 7 8 -1 0
BITMAP
0014
0058
0070
0160
0660
0AE0
1480
60D0
ENDCHAR
STARTCHAR AE
ENCODING 198
SWIDTH 878 0
DWIDTH 7 0
BBX 9 6 -1 0
BITMAP
00AA40
017540
022100
0AB800
149000
606900
ENDCHAR
STARTCHAR Ccedilla
ENCODING 199
SWIDTH 533 0
DWIDTH 4 0
BBX 5 8 0 -2
BITMAP
0A80
2480
6240
5000
9000
6900
2000
1000
ENDCHAR
STARTCHAR Egrave
ENCODING 200
SWIDTH 509 0
DWIDTH 4 0
BBX 5 8 0 0
BITMAP
0600
0100
1A40
3580
2100
2800
9000
6900
ENDCHAR
STARTCHAR Eacute
ENCODING 201
SWIDTH 509 0
DWIDTH 4 0
BBX 5 8 0 0
BITMAP
0080
0100
1A40
3580
2100
2800
9000
6900
ENDCHAR
STARTCHAR Ecircumflex
ENCODING 202
SWIDTH 509 0
DWIDTH 4 0
BBX 5 8 0 0
BITMAP
0240
0440
1A40
3580
2100
2800
9000
6900
ENDCHAR
STARTCHAR Edieresis
ENCODING 203
SWIDTH 509 0
DWIDTH 4 0
BBX 5 8 0 0
BITMAP
0440
0480
1A40
3580
2100
2800
9000
6900
ENDCHAR
STARTCHAR Igrave
ENCODING 204
SWIDTH 327 0
DWIDTH 3 0
BBX 3 8 0 0
BITMAP
14
04
28
18
24
20
60
80
ENDCHAR
STARTCHAR Iacute
ENCODING 205
SWIDTH 327 0
DWIDTH 3 0
BBX 4 8 0 0
BITMAP
06
04
28
18
24
20
60
80
ENDCHAR
STARTCHAR Icircumflex
ENCODING 206
SWIDTH 327 0
DWIDTH 3 0
BBX 4 8 0 0
BITMAP
09
11
28
18
24
20
60
80
ENDCHAR
STARTCHAR Idieresis
ENCODING 207
SWIDTH 327 0
DWIDTH 3 0
BBX 4 8 0 0
BITMAP
11
22
28
18
24
20
60
80
ENDCHAR
STARTCHAR Eth
ENCODING 208
SWIDTH 630 0
DWIDTH 5 0
BBX 5 6 0 0
BITMAP
2A40
1480
7880
6180
9200
6800
ENDCHAR
STARTCHAR Ntilde
ENCODING 209
SWIDTH 708 0
DWIDTH 6 0
BBX 7 8 0 0
BITMAP
0184
0160
0930
1920
2920
5650
8280
8240
ENDCHAR
STARTCHAR Ograve
ENCODING 210
SWIDTH 655 0
DWIDTH 5 0
BBX 6 8 0 0
BITMAP
0240
0040
0A80
2890
3090
60C0
5240
2900
ENDCHAR
STARTCHAR Oacute
ENCODING 211
SWIDTH 655 0
DWIDTH 5 0
BBX 6 8 0 0
BITMAP
0050
0040
0A80
2890
3090
60C0
5240
2900
ENDCHAR
STARTCHAR Ocircumflex
ENCODING 212
SWIDTH 655 0
DWIDTH 5 0
BBX 6 8 0 0
BITMAP
0080
0150
0A80
2890
3090
60C0
5240
2900
ENDCHAR
STARTCHAR Otilde
ENCODING 213
SWIDTH 655 0
DWIDTH 5 0
BBX 6 8 0 0
BITMAP
0250
0190
0A80
2890
3090
60C0
5240
2900
ENDCHAR
STARTCHAR Odieresis
ENCODING 214
SWIDTH 655 0
DWIDTH 5 0
BBX 6 8 0 0
BITMAP
0110
0210
0A80
2890
3090
60C0
5240
2900
ENDCHAR
STARTCHAR multiply
ENCODING 215
SWIDTH 573 0
DWIDTH 5 0
BBX 3 3 1 1
BITMAP
98
70
88
ENDCHAR
STARTCHAR Oslash
ENCODING 216
SWIDTH 655 0
DWIDTH 5 0
BBX 6 8 0 -1
BITMAP
0010
06D0
19A0
2560
2490
6580
3A00
1000
ENDCHAR
STARTCHAR Ugrave
ENCODING 217
SWIDTH 624 0
DWIDTH 5 0
BBX 6 8 0 0
BITMAP
0200
0100
1850
14C0
2180
6340
8A00
A240
ENDCHAR
STARTCHAR Uacute
ENCODING 218
SWIDTH 624 0
DWIDTH 5 0
BBX 6 8 0 0
BITMAP
0080
0140
1850
14C0
2180
6340
8A00
A240
ENDCHAR
STARTCHAR Ucircumflex
ENCODING 219
SWIDTH 624 0
DWIDTH 5 0
BBX 6 8 0 0
BITMAP
0180
0540
1850
14C0
2180
6340
8A00
A240
ENDCHAR
STARTCHAR Udieresis
ENCODING 220
SWIDTH 624 0
DWIDTH 5 0
BBX 6 8 0 0
BITMAP
0540
0540
1850
14C0
2180
6340
8A00
A240
ENDCHAR
STARTCHAR Yacute
ENCODING 221
SWIDTH 580 0
DWIDTH 5 0
BBX 6 10 0 -2
BITMAP
0080
0140
1850
24C0
2180
5340
8A00
A500
0800
6000
ENDCHAR
STARTCHAR Thorn
ENCODING 222
SWIDTH 527 0
DWIDTH 4 0
BBX 5 6 0 0
BITMAP
6400
2900
2240
2600
A400
8000
ENDCHAR
STARTCHAR germandbls
ENCODING 223
SWIDTH 520 0
DWIDTH 4 0
BBX 6 8 -1 -1
BITMAP
0280
0550
0880
0A00
1600
2580
3640
6000
ENDCHAR
STARTCHAR agrave
ENCODING 224
SWIDTH 541 0
DWIDTH 4 0
BBX 5 6 0 0
BITMAP
0800
0500
1A40
6200
9900
6A00
ENDCHAR
STARTCHAR aacute
ENCODING 225
SWIDTH 541 0
DWIDTH 4 0
BBX 5 7 0 0
BITMAP
0100
0600
0400
1A40
6200
9900
6A00
ENDCHAR
STARTCHAR acircumflex
ENCODING 226
SWIDTH 541 0
DWIDTH 4 0
BBX 5 6 0 0
BITMAP
0700
1500
1A40
6200
9900
6A00
ENDCHAR
STARTCHAR atilde
ENCODING 227
SWIDTH 541 0
DWIDTH 4 0
BBX 5 6 0 0
BITMAP
1A40
0000
1A40
6200
9900
6A00
ENDCHAR
STARTCHAR adieresis
ENCODING 228
SWIDTH 541 0
DWIDTH 4 0
BBX 5 6 0 0
BITMAP
1940
0000
1A40
6200
9900
6A00
ENDCHAR
STARTCHAR aring
ENCODING 229
SWIDTH 541 0
DWIDTH 4 0
BBX 5 6 0 0
BITMAP
0A00
0500
1A40
6200
9900
6A00
ENDCHAR
STARTCHAR ae
ENCODING 230
SWIDTH 769 0
DWIDTH 6 0
BBX 6 4 0 0
BITMAP
1AA0
6370
9A40
6690
ENDCHAR
STARTCHAR ccedilla
ENCODING 231
SWIDTH 465 0
DWIDTH 4 0
BBX 4 6 0 -2
BITMAP
29
65
90
A8
20
60
ENDCHAR
STARTCHAR egrave
ENCODING 232
SWIDTH 471 0
DWIDTH 4 0
BBX 4 6 0 0
BITMAP
08
04
19
65
A4
68
ENDCHAR
STARTCHAR eacute
ENCODING 233
SWIDTH 471 0
DWIDTH 4 0
BBX 4 6 0 0
BITMAP
05
04
19
65
A4
68
ENDCHAR
STARTCHAR ecircumflex
ENCODING 234
SWIDTH 471 0
DWIDTH 4 0
BBX 4 6 0 0
BITMAP
0A
11
19
65
A4
68
ENDCHAR
STARTCHAR edieresis
ENCODING 235
SWIDTH 471 0
DWIDTH 4 0
BBX 5 6 0 0
BITMAP
2640
0000
1900
6900
9400
6800
ENDCHAR
STARTCHAR igrave
ENCODING 236
SWIDTH 286 0
DWIDTH 2 0
BBX 2 6 0 0
BITMAP
20
10
30
20
90
90
ENDCHAR
STARTCHAR iacute
ENCODING 237
SWIDTH 286 0
DWIDTH 2 0
BBX 3 7 0 0
BITMAP
04
18
10
30
20
90
90
ENDCHAR
STARTCHAR icircumflex
ENCODING 238
SWIDTH 286 0
DWIDTH 2 0
BBX 3 6 0 0
BITMAP
18
44
30
20
90
90
ENDCHAR
STARTCHAR idieresis
ENCODING 239
SWIDTH 286 0
DWIDTH 2 0
BBX 4 6 0 0
BITMAP
69
00
30
20
90
90
ENDCHAR
STARTCHAR eth
ENCODING 240
SWIDTH 524 0
DWIDTH 4 0
BBX 5 7 0 0
BITMAP
0100
0280
0640
1B00
6200
9900
6800
ENDCHAR
STARTCHAR ntilde
ENCODING 241
SWIDTH 561 0
DWIDTH 4 0
BBX 5 6 0 0
BITMAP
0A40
0000
3700
3600
9500
8600
ENDCHAR
STARTCHAR ograve
ENCODING 242
SWIDTH 514 0
DWIDTH 4 0
BBX 4 6 0 0
BITMAP
09
05
2A
62
96
68
ENDCHAR
STARTCHAR oacute
ENCODING 243
SWIDTH 514 0
DWIDTH 4 0
BBX 4 7 0 0
BITMAP
01
02
04
2A
62
96
68
ENDCHAR
STARTCHAR ocircumflex
ENCODING 244
SWIDTH 514 0
DWIDTH 4 0
BBX 4 6 0 0
BITMAP
07
05
2A
62
96
68
ENDCHAR
STARTCHAR otilde
ENCODING 245
SWIDTH 514 0
DWIDTH 4 0
BBX 5 6 0 0
BITMAP
0A40
0000
2A00
6200
9600
6800
ENDCHAR
STARTCHAR odieresis
ENCODING 246
SWIDTH 514 0
DWIDTH 4 0
BBX 5 6 0 0
BITMAP
1980
0000
2A00
6200
9600
6800
ENDCHAR
STARTCHAR divide
ENCODING 247
SWIDTH 617 0
DWIDTH 5 0
BBX 4 4 1 0
BITMAP
20
A9
20
10
ENDCHAR
STARTCHAR oslash
ENCODING 248
SWIDTH 514 0
DWIDTH 4 0
BBX 4 6 0 -1
BITMAP
01
2A
66
A6
68
40
ENDCHAR
STARTCHAR ugrave
ENCODING 249
SWIDTH 553 0
DWIDTH 4 0
BBX 5 6 0 0
BITMAP
0500
0100
3240
2600
9900
A600
ENDCHAR
STARTCHAR uacute
ENCODING 250
SWIDTH 553 0
DWIDTH 4 0
BBX 5 7 0 0
BITMAP
0100
0200
0400
3240
2600
9900
A600
ENDCHAR
STARTCHAR ucircumflex
ENCODING 251
SWIDTH 553 0
DWIDTH 4 0
BBX 5 6 0 0
BITMAP
0640
0440
3240
2600
9900
A600
ENDCHAR
STARTCHAR udieresis
ENCODING 252
SWIDTH 553 0
DWIDTH 4 0
BBX 5 6 0 0
BITMAP
0D80
0000
3240
2600
9900
A600
ENDCHAR
STARTCHAR yacute
ENCODING 253
SWIDTH 549 0
DWIDTH 4 0
BBX 5 9 0 -2
BITMAP
0100
0200
0400
3240
2300
9A00
A900
0800
2000
ENDCHAR
STARTCHAR thorn
ENCODING 254
SWIDTH 552 0
DWIDTH 4 0
BBX 5 9 -1 -2
BITMAP
0100
0600
0900
0A80
0CC0
1580
2A00
6000
9000
ENDCHAR
STARTCHAR ydieresis
ENCODING 255
SWIDTH 549 0
DWIDTH 4 0
BBX 5 8 0 -2
BITMAP
1980
0000
3240
2300
9A00
A900
0800
2000
ENDCHAR
STARTCHAR Amacron
ENCODING 256
SWIDTH 615 0
DWIDTH 5 0
BBX 7 7 -1 0
BITMAP
00A4
0070
0160
0660
0AE0
1480
60D0
ENDCHAR
STARTCHAR amacron
ENCODING 257
SWIDTH 543 0
DWIDTH 4 0
BBX 5 5 0 0
BITMAP
1A00
1A40
6200
9900
6A00
ENDCHAR
STARTCHAR Abreve
ENCODING 258
SWIDTH 615 0
DWIDTH 5 0
BBX 7 8 -1 0
BITMAP
0054
0064
0070
0160
0660
0AE0
1480
60D0
ENDCHAR
STARTCHAR abreve
ENCODING 259
SWIDTH 543 0
DWIDTH 4 0
BBX 5 6 0 0
BITMAP
0840
0A00
1A40
6200
9900
6A00
ENDCHAR
STARTCHAR Aogonek
ENCODING 260
SWIDTH 615 0
DWIDTH 5 0
BBX 6 8 -1 -2
BITMAP
0070
0160
0260
0AE0
1480
60D0
0140
0140
ENDCHAR
STARTCHAR aogonek
ENCODING 261
SWIDTH 541 0
DWIDTH 4 0
BBX 5 6 0 -2
BITMAP
1A40
6200
9900
6A00
0800
0900
ENDCHAR
STARTCHAR Cacute
ENCODING 262
SWIDTH 533 0
DWIDTH 4 0
BBX 6 8 0 0
BITMAP
0050
0040
0A80
2480
6240
5000
9000
6900
ENDCHAR
STARTCHAR cacute
ENCODING 263
SWIDTH 468 0
DWIDTH 4 0
BBX 4 6 0 0
BITMAP
02
00
29
65
90
68
ENDCHAR
STARTCHAR Ccircumflex
ENCODING 264
SWIDTH 533 0
DWIDTH 4 0
BBX 6 8 0 0
BITMAP
0080
0150
0A80
2480
6240
5000
9000
6900
ENDCHAR
STARTCHAR ccircumflex
ENCODING 265
SWIDTH 468 0
DWIDTH 4 0
BBX 4 6 0 0
BITMAP
07
15
29
65
90
68
ENDCHAR
STARTCHAR Cdotaccent
ENCODING 266
SWIDTH 533 0
DWIDTH 4 0
BBX 5 8 0 0
BITMAP
0140
0140
0A80
2480
6240
5000
9000
6900
ENDCHAR
STARTCHAR cdotaccent
ENCODING 267
SWIDTH 468 0
DWIDTH 4 0
BBX 4 6 0 0
BITMAP
06
00
29
65
90
68
ENDCHAR
STARTCHAR Ccaron
ENCODING 268
SWIDTH 533 0
DWIDTH 4 0
BBX 6 8 0 0
BITMAP
0110
0180
0A80
2480
6240
5000
9000
6900
ENDCHAR
STARTCHAR ccaron
ENCODING 269
SWIDTH 468 0
DWIDTH 4 0
BBX 5 6 0 0
BITMAP
0940
0500
2900
6500
9000
6800
ENDCHAR
STARTCHAR Dcaron
ENCODING 270
SWIDTH 630 0
DWIDTH 5 0
BBX 5 8 0 0
BITMAP
0100
0240
2A40
1480
2480
6180
5200
6800
ENDCHAR
STARTCHAR dcaron
ENCODING 271
SWIDTH 557 0
DWIDTH 4 0
BBX 7 7 0 0
BITMAP
0054
0094
0190
1B40
6200
9A00
6600
ENDCHAR
STARTCHAR Dcroat
ENCODING 272
SWIDTH 630 0
DWIDTH 5 0
BBX 5 6 0 0
BITMAP
2A40
1480
7880
6180
9200
6800
ENDCHAR
STARTCHAR dcroat
ENCODING 273
SWIDTH 557 0
DWIDTH 4 0
BBX 5 7 0 0
BITMAP
0040
02C0
0140
1B00
6200
9A00
6600
ENDCHAR
STARTCHAR Emacron
ENCODING 274
SWIDTH 509 0
DWIDTH 4 0
BBX 5 7 0 0
BITMAP
0680
1A40
3580
2100
2800
9000
6900
ENDCHAR
STARTCHAR emacron
ENCODING 275
SWIDTH 471 0
DWIDTH 4 0
BBX 4 5 0 0
BITMAP
1A
19
65
A4
68
ENDCHAR
STARTCHAR Ebreve
ENCODING 276
SWIDTH 509 0
DWIDTH 4 0
BBX 5 8 0 0
BITMAP
0540
0640
1A40
3580
2100
2800
9000
6900
ENDCHAR
STARTCHAR ebreve
ENCODING 277
SWIDTH 471 0
DWIDTH 4 0
BBX 4 6 0 0
BITMAP
15
09
19
65
A4
68
ENDCHAR
STARTCHAR Edotaccent
ENCODING 278
SWIDTH 509 0
DWIDTH 4 0
BBX 5 8 0 0
BITMAP
0100
0200
1A40
3580
2100
2800
9000
6900
ENDCHAR
STARTCHAR edotaccent
ENCODING 279
SWIDTH 471 0
DWIDTH 4 0
BBX 4 6 0 0
BITMAP
09
00
19
65
A4
68
ENDCHAR
STARTCHAR Eogonek
ENCODING 280
SWIDTH 509 0
DWIDTH 4 0
BBX 5 8 0 -2
BITMAP
1A40
3580
2100
2800
9000
6900
2000
2000
ENDCHAR
STARTCHAR eogonek
ENCODING 281
SWIDTH 471 0
DWIDTH 4 0
BBX 4 6 0 -2
BITMAP
19
65
A4
68
20
20
ENDCHAR
STARTCHAR Ecaron
ENCODING 282
SWIDTH 509 0
DWIDTH 4 0
BBX 5 8 0 0
BITMAP
0540
0240
1A40
3580
2100
2800
9000
6900
ENDCHAR
STARTCHAR ecaron
ENCODING 283
SWIDTH 471 0
DWIDTH 4 0
BBX 5 6 0 0
BITMAP
0940
0400
1900
6500
A400
6800
ENDCHAR
STARTCHAR Gcircumflex
ENCODING 284
SWIDTH 598 0
DWIDTH 5 0
BBX 5 8 0 0
BITMAP
0180
0140
0A80
2580
6100
5740
9200
6800
ENDCHAR
STARTCHAR gcircumflex
ENCODING 285
SWIDTH 526 0
DWIDTH 4 0
BBX 4 8 0 -2
BITMAP
07
05
16
63
9A
69
08
20
ENDCHAR
STARTCHAR Gbreve
ENCODING 286
SWIDTH 598 0
DWIDTH 5 0
BBX 6 8 0 0
BITMAP
0210
0180
0A80
2580
6100
5740
9200
6800
ENDCHAR
STARTCHAR gbreve
ENCODING 287
SWIDTH 526 0
DWIDTH 4 0
BBX 5 8 0 -2
BITMAP
0840
0A00
1600
6300
9A00
6900
0800
2000
ENDCHAR
STARTCHAR Gdotaccent
ENCODING 288
SWIDTH 598 0
DWIDTH 5 0
BBX 5 8 0 0
BITMAP
0140
0140
0A80
2580
6100
5740
9200
6800
ENDCHAR
STARTCHAR gdotaccent
ENCODING 289
SWIDTH 526 0
DWIDTH 4 0
BBX 4 8 0 -2
BITMAP
06
00
16
63
9A
69
08
20
ENDCHAR
STARTCHAR Gcommaaccent
ENCODING 290
SWIDTH 598 0
DWIDTH 5 0
BBX 5 8 0 -2
BITMAP
0A80
2580
6100
5740
9200
6800
2000
1000
ENDCHAR
STARTCHAR gcommaaccent
ENCODING 291
SWIDTH 526 0
DWIDTH 4 0
BBX 4 8 0 -2
BITMAP
02
01
16
63
9A
69
08
20
ENDCHAR
STARTCHAR Hcircumflex
ENCODING 292
SWIDTH 668 0
DWIDTH 5 0
BBX 6 8 0 0
BITMAP
0140
0540
2860
1490
2AD0
2180
5240
8240
ENDCHAR
STARTCHAR hcircumflex
ENCODING 293
SWIDTH 555 0
DWIDTH 4 0
BBX 4 8 0 0
BITMAP
04
25
14
24
27
76
95
86
ENDCHAR
STARTCHAR Hbar
ENCODING 294
SWIDTH 668 0
DWIDTH 5 0
BBX 6 6 0 0
BITMAP
2860
2AE0
2AC0
2180
5240
8240
ENDCHAR
STARTCHAR hbar
ENCODING 295
SWIDTH 555 0
DWIDTH 4 0
BBX 4 7 0 0
BITMAP
04
29
24
27
36
95
86
ENDCHAR
STARTCHAR Itilde
ENCODING 296
SWIDTH 327 0
DWIDTH 3 0
BBX 4 8 0 0
BITMAP
19
19
28
18
24
20
60
80
ENDCHAR
STARTCHAR itilde
ENCODING 297
SWIDTH 286 0
DWIDTH 2 0
BBX 4 6 0 0
BITMAP
69
00
30
20
90
90
ENDCHAR
STARTCHAR Imacron
ENCODING 298
SWIDTH 327 0
DWIDTH 3 0
BBX 4 7 0 0
BITMAP
29
28
18
24
20
60
80
ENDCHAR
STARTCHAR imacron
ENCODING 299
SWIDTH 286 0
DWIDTH 2 0
BBX 3 5 0 0
BITMAP
68
30
20
90
90
ENDCHAR
STARTCHAR Ibreve
ENCODING 300
SWIDTH 327 0
DWIDTH 3 0
BBX 4 8 0 0
BITMAP
15
19
28
18
24
20
60
80
ENDCHAR
STARTCHAR ibreve
ENCODING 301
SWIDTH 286 0
DWIDTH 2 0
BBX 4 6 0 0
BITMAP
25
24
30
20
90
90
ENDCHAR
STARTCHAR Iogonek
ENCODING 302
SWIDTH 327 0
DWIDTH 3 0
BBX 4 8 -1 -2
BITMAP
0A
06
09
08
18
20
80
80
ENDCHAR
STARTCHAR iogonek
ENCODING 303
SWIDTH 297 0
DWIDTH 2 0
BBX 3 8 0 -2
BITMAP
18
00
30
20
50
90
80
80
ENDCHAR
STARTCHAR Idotaccent
ENCODING 304
SWIDTH 327 0
DWIDTH 3 0
BBX 3 8 0 0
BITMAP
04
04
28
18
24
20
60
80
ENDCHAR
STARTCHAR dotlessi
ENCODING 305
SWIDTH 286 0
DWIDTH 2 0
BBX 2 4 0 0
BITMAP
30
20
90
90
ENDCHAR
STARTCHAR IJ
ENCODING 306
SWIDTH 720 0
DWIDTH 6 0
BBX 6 8 0 -2
BITMAP
2AA0
1930
2460
2090
6080
8240
0600
1800
ENDCHAR
STARTCHAR ij
ENCODING 307
SWIDTH 567 0
DWIDTH 5 0
BBX 5 8 0 -2
BITMAP
1580
0000
3240
2200
9200
9500
0800
2000
ENDCHAR
STARTCHAR Jcircumflex
ENCODING 308
SWIDTH 393 0
DWIDTH 3 0
BBX 5 10 -1 -2
BITMAP
0180
0140
1A40
1240
0300
0600
0900
1800
2000
9000
ENDCHAR
STARTCHAR jcircumflex
ENCODING 309
SWIDTH 282 0
DWIDTH 2 0
BBX 4 8 -1 -2
BITMAP
0A
11
0C
08
14
20
60
80
ENDCHAR
STARTCHAR Kcommaaccent
ENCODING 310
SWIDTH 616 0
DWIDTH 5 0
BBX 5 8 0 -2
BITMAP
6480
2480
2600
3800
9A00
8240
2000
2000
ENDCHAR
STARTCHAR kcommaaccent
ENCODING 311
SWIDTH 497 0
DWIDTH 4 0
BBX 4 9 0 -2
BITMAP
04
18
14
23
29
A4
89
10
50
ENDCHAR
STARTCHAR kgreenlandic
ENCODING 312
SWIDTH 497 0
DWIDTH 4 0
BBX 4 4 0 0
BITMAP
33
29
A4
89
ENDCHAR
STARTCHAR Lacute
ENCODING 313
SWIDTH 517 0
DWIDTH 4 0
BBX 5 8 0 0
BITMAP
0080
0100
0A40
1940
2600
2000
9000
EA00
ENDCHAR
STARTCHAR lacute
ENCODING 314
SWIDTH 279 0
DWIDTH 2 0
BBX 4 8 0 0
BITMAP
05
04
14
24
20
60
90
90
ENDCHAR
STARTCHAR Lcommaaccent
ENCODING 315
SWIDTH 517 0
DWIDTH 4 0
BBX 5 8 0 -2
BITMAP
0A40
1940
2600
2000
9000
EA00
5000
5000
ENDCHAR
STARTCHAR lcommaaccent
ENCODING 316
SWIDTH 279 0
DWIDTH 2 0
BBX 3 9 0 -2
BITMAP
04
14
24
20
60
90
90
40
80
ENDCHAR
STARTCHAR Lcaron
ENCODING 317
SWIDTH 517 0
DWIDTH 4 0
BBX 6 8 0 0
BITMAP
0010
0020
0A50
1940
2600
2000
9000
EA00
ENDCHAR
STARTCHAR lcaron
ENCODING 318
SWIDTH 467 0
DWIDTH 4 0
BBX 5 7 0 0
BITMAP
0500
1540
2500
2000
6000
9000
9000
ENDCHAR
STARTCHAR Ldot
ENCODING 319
SWIDTH 668 0
DWIDTH 5 0
BBX 6 6 0 0
BITMAP
0A40
1940
2600
2090
9000
EA00
ENDCHAR
STARTCHAR ldot
ENCODING 320
SWIDTH 489 0
DWIDTH 4 0
BBX 4 7 0 0
BITMAP
04
14
24
21
65
90
90
ENDCHAR
STARTCHAR Lslash
ENCODING 321
SWIDTH 517 0
DWIDTH 4 0
BBX 5 6 0 0
BITMAP
0A40
1940
2600
7400
9000
EA00
ENDCHAR
STARTCHAR lslash
ENCODING 322
SWIDTH 279 0
DWIDTH 2 0
BBX 4 7 0 0
BITMAP
10
29
24
20
60
90
90
ENDCHAR
STARTCHAR Nacute
ENCODING 323
SWIDTH 708 0
DWIDTH 6 0
BBX 6 8 0 0
BITMAP
0020
0050
0930
1920
2920
5650
8280
8240
ENDCHAR
STARTCHAR nacute
ENCODING 324
SWIDTH 561 0
DWIDTH 4 0
BBX 4 7 0 0
BITMAP
01
02
04
37
36
95
86
ENDCHAR
STARTCHAR Ncommaaccent
ENCODING 325
SWIDTH 708 0
DWIDTH 6 0
BBX 6 8 0 -2
BITMAP
0930
1920
2920
5650
8280
8240
0800
0800
ENDCHAR
STARTCHAR ncommaaccent
ENCODING 326
SWIDTH 561 0
DWIDTH 4 0
BBX 4 6 0 -2
BITMAP
37
36
95
86
10
10
ENDCHAR
STARTCHAR Ncaron
ENCODING 327
SWIDTH 708 0
DWIDTH 6 0
BBX 6 8 0 0
BITMAP
0040
0090
0930
1920
2920
5650
8280
8240
ENDCHAR
STARTCHAR ncaron
ENCODING 328
SWIDTH 561 0
DWIDTH 4 0
BBX 5 6 0 0
BITMAP
0940
0500
3700
3600
9500
8600
ENDCHAR
STARTCHAR Eng
ENCODING 330
SWIDTH 698 0
DWIDTH 6 0
BBX 6 8 0 -2
BITMAP
0930
2930
2920
5550
8680
8240
0600
1400
ENDCHAR
STARTCHAR eng
ENCODING 331
SWIDTH 561 0
DWIDTH 4 0
BBX 4 6 0 -2
BITMAP
37
36
92
89
18
20
ENDCHAR
STARTCHAR Omacron
ENCODING 332
SWIDTH 655 0
DWIDTH 5 0
BBX 6 7 0 0
BITMAP
0290
0A80
2890
3090
60C0
5240
2900
ENDCHAR
STARTCHAR omacron
ENCODING 333
SWIDTH 514 0
DWIDTH 4 0
BBX 5 5 0 0
BITMAP
0A40
2A00
6200
9600
6800
ENDCHAR
STARTCHAR Obreve
ENCODING 334
SWIDTH 655 0
DWIDTH 5 0
BBX 6 8 0 0
BITMAP
0210
0180
0A80
2890
3090
60C0
5240
2900
ENDCHAR
STARTCHAR obreve
ENCODING 335
SWIDTH 514 0
DWIDTH 4 0
BBX 5 6 0 0
BITMAP
0840
0A00
2A00
6200
9600
6800
ENDCHAR
STARTCHAR Ohungarumlaut
ENCODING 336
SWIDTH 655 0
DWIDTH 5 0
BBX 6 8 0 0
BITMAP
0160
0140
0A80
2890
3090
60C0
5240
2900
ENDCHAR
STARTCHAR ohungarumlaut
ENCODING 337
SWIDTH 514 0
DWIDTH 4 0
BBX 5 7 0 0
BITMAP
0040
0940
0100
2A00
6200
9600
6800
ENDCHAR
STARTCHAR OE
ENCODING 338
SWIDTH 900 0
DWIDTH 7 0
BBX 7 6 1 0
BITMAP
1AA8
6188
9154
C190
8710
AAA0
ENDCHAR
STARTCHAR oe
ENCODING 339
SWIDTH 777 0
DWIDTH 6 0
BBX 6 4 0 0
BITMAP
1AA0
6360
5740
6A90
ENDCHAR
STARTCHAR Racute
ENCODING 340
SWIDTH 623 0
DWIDTH 5 0
BBX 5 8 0 0
BITMAP
0080
0100
2A40
18C0
2580
3900
5500
8240
ENDCHAR
STARTCHAR racute
ENCODING 341
SWIDTH 407 0
DWIDTH 3 0
BBX 4 7 0 0
BITMAP
01
06
04
2A
34
60
80
ENDCHAR
STARTCHAR Rcommaaccent
ENCODING 342
SWIDTH 623 0
DWIDTH 5 0
BBX 5 8 0 -2
BITMAP
2A40
18C0
2580
3900
5500
8240
2000
2000
ENDCHAR
STARTCHAR rcommaaccent
ENCODING 343
SWIDTH 407 0
DWIDTH 3 0
BBX 5 6 -1 -2
BITMAP
0A80
0D00
1800
2000
1000
5000
ENDCHAR
STARTCHAR Rcaron
ENCODING 344
SWIDTH 623 0
DWIDTH 5 0
BBX 5 8 0 0
BITMAP
0540
0240
2A40
18C0
2580
3900
5500
8240
ENDCHAR
STARTCHAR rcaron
ENCODING 345
SWIDTH 407 0
DWIDTH 3 0
BBX 5 6 0 0
BITMAP
1640
0400
2A00
3400
6000
8000
ENDCHAR
STARTCHAR Sacute
ENCODING 346
SWIDTH 474 0
DWIDTH 4 0
BBX 5 8 0 0
BITMAP
0080
0100
1A00
3140
3200
2400
4800
A400
ENDCHAR
STARTCHAR sacute
ENCODING 347
SWIDTH 423 0
DWIDTH 3 0
BBX 4 7 0 0
BITMAP
01
06
04
29
24
24
A4
ENDCHAR
STARTCHAR Scircumflex
ENCODING 348
SWIDTH 474 0
DWIDTH 4 0
BBX 5 8 0 0
BITMAP
0240
0440
1A00
3140
3200
2400
4800
A400
ENDCHAR
STARTCHAR scircumflex
ENCODING 349
SWIDTH 423 0
DWIDTH 3 0
BBX 4 6 0 0
BITMAP
0A
11
29
24
24
A4
ENDCHAR
STARTCHAR Scedilla
ENCODING 350
SWIDTH 474 0
DWIDTH 4 0
BBX 5 8 0 -2
BITMAP
1A00
3240
3200
2800
8800
6400
2000
5000
ENDCHAR
STARTCHAR scedilla
ENCODING 351
SWIDTH 423 0
DWIDTH 3 0
BBX 4 6 0 -2
BITMAP
29
20
24
A4
50
90
ENDCHAR
STARTCHAR Scaron
ENCODING 352
SWIDTH 474 0
DWIDTH 4 0
BBX 5 8 0 0
BITMAP
0540
0240
1A00
3140
3200
2400
4800
A400
ENDCHAR
STARTCHAR scaron
ENCODING 353
SWIDTH 423 0
DWIDTH 3 0
BBX 5 6 0 0
BITMAP
0940
0400
2900
2400
2400
A400
ENDCHAR
STARTCHAR Tcommaaccent
ENCODING 354
SWIDTH 471 0
DWIDTH 4 0
BBX 5 8 0 -2
BITMAP
6A80
4900
0C00
1800
2400
6000
1000
5000
ENDCHAR
STARTCHAR tcommaaccent
ENCODING 355
SWIDTH 358 0
DWIDTH 3 0
BBX 3 7 0 -2
BITMAP
14
78
60
90
64
40
80
ENDCHAR
STARTCHAR Tcaron
ENCODING 356
SWIDTH 471 0
DWIDTH 4 0
BBX 5 8 0 0
BITMAP
0100
0240
6A80
4900
0C00
1800
2400
6000
ENDCHAR
STARTCHAR tcaron
ENCODING 357
SWIDTH 497 0
DWIDTH 4 0
BBX 5 7 0 0
BITMAP
0040
0080
0900
3900
2000
6000
2400
ENDCHAR
STARTCHAR Tbar
ENCODING 358
SWIDTH 471 0
DWIDTH 4 0
BBX 5 6 0 0
BITMAP
6A80
0800
6D00
1400
2000
6000
ENDCHAR
STARTCHAR tbar
ENCODING 359
SWIDTH 358 0
DWIDTH 3 0
BBX 3 5 0 0
BITMAP
14
78
64
90
64
ENDCHAR
STARTCHAR Utilde
ENCODING 360
SWIDTH 624 0
DWIDTH 5 0
BBX 6 8 0 0
BITMAP
0210
0580
1850
14C0
2180
6340
8A00
A240
ENDCHAR
STARTCHAR utilde
ENCODING 361
SWIDTH 553 0
DWIDTH 4 0
BBX 5 6 0 0
BITMAP
0A40
0000
3240
2600
9900
A600
ENDCHAR
STARTCHAR Umacron
ENCODING 362
SWIDTH 624 0
DWIDTH 5 0
BBX 6 7 0 0
BITMAP
0680
1850
14C0
2180
6340
8A00
A240
ENDCHAR
STARTCHAR umacron
ENCODING 363
SWIDTH 553 0
DWIDTH 4 0
BBX 5 5 0 0
BITMAP
0A40
3240
2600
9900
A600
ENDCHAR
STARTCHAR Ubreve
ENCODING 364
SWIDTH 624 0
DWIDTH 5 0
BBX 6 8 0 0
BITMAP
0250
0240
1850
14C0
2180
6340
8A00
A240
ENDCHAR
STARTCHAR ubreve
ENCODING 365
SWIDTH 553 0
DWIDTH 4 0
BBX 5 6 0 0
BITMAP
0840
0600
3240
2600
9900
A600
ENDCHAR
STARTCHAR Uring
ENCODING 366
SWIDTH 624 0
DWIDTH 5 0
BBX 6 8 0 0
BITMAP
0140
0280
1950
14C0
2180
6340
8A00
A240
ENDCHAR
STARTCHAR uring
ENCODING 367
SWIDTH 553 0
DWIDTH 4 0
BBX 5 6 0 0
BITMAP
0640
0500
3240
2600
9900
A600
ENDCHAR
STARTCHAR Uhungarumlaut
ENCODING 368
SWIDTH 624 0
DWIDTH 5 0
BBX 6 8 0 0
BITMAP
0250
0140
1850
14C0
2180
6340
8A00
A240
ENDCHAR
STARTCHAR uhungarumlaut
ENCODING 369
SWIDTH 553 0
DWIDTH 4 0
BBX 5 7 0 0
BITMAP
0040
0980
0500
3240
2600
9900
A600
ENDCHAR
STARTCHAR Uogonek
ENCODING 370
SWIDTH 684 0
DWIDTH 5 0
BBX 6 8 0 -2
BITMAP
0C20
1890
25C0
2280
5640
6580
0200
0240
ENDCHAR
STARTCHAR uogonek
ENCODING 371
SWIDTH 553 0
DWIDTH 4 0
BBX 5 6 0 -2
BITMAP
3240
2600
9900
A600
0800
0900
ENDCHAR
STARTCHAR Wcircumflex
ENCODING 372
SWIDTH 941 0
DWIDTH 8 0
BBX 8 8 0 0
BITMAP
0060
0050
2802
1853
26C2
2645
6A48
61A0
ENDCHAR
STARTCHAR wcircumflex
ENCODING 373
SWIDTH 750 0
DWIDTH 6 0
BBX 6 6 0 0
BITMAP
0280
0440
3220
2620
5950
9640
ENDCHAR
STARTCHAR Ycircumflex
ENCODING 374
SWIDTH 580 0
DWIDTH 5 0
BBX 6 10 0 -2
BITMAP
0180
0540
1850
24C0
2180
5340
8A00
A500
0800
6000
ENDCHAR
STARTCHAR ycircumflex
ENCODING 375
SWIDTH 549 0
DWIDTH 4 0
BBX 5 8 0 -2
BITMAP
0700
0500
3240
2300
9A00
A900
0800
2000
ENDCHAR
STARTCHAR Ydieresis
ENCODING 376
SWIDTH 580 0
DWIDTH 5 0
BBX 6 10 0 -2
BITMAP
0540
0540
1850
24C0
2180
5340
8A00
A500
0800
6000
ENDCHAR
STARTCHAR Zacute
ENCODING 377
SWIDTH 501 0
DWIDTH 4 0
BBX 5 8 0 0
BITMAP
0140
0100
2A80
0340
0D00
2400
9000
E900
ENDCHAR
STARTCHAR zacute
ENCODING 378
SWIDTH 430 0
DWIDTH 3 0
BBX 4 7 0 0
BITMAP
01
06
04
2A
18
60
A8
ENDCHAR
STARTCHAR Zdotaccent
ENCODING 379
SWIDTH 501 0
DWIDTH 4 0
BBX 5 8 0 0
BITMAP
0500
0500
2A80
0340
0D00
2400
9000
E900
ENDCHAR
STARTCHAR zdotaccent
ENCODING 380
SWIDTH 430 0
DWIDTH 3 0
BBX 4 6 0 0
BITMAP
0C
00
2A
18
60
A8
ENDCHAR
STARTCHAR Zcaron
ENCODING 381
SWIDTH 501 0
DWIDTH 4 0
BBX 5 8 0 0
BITMAP
0440
0600
2A80
0340
0D00
2400
9000
E900
ENDCHAR
STARTCHAR zcaron
ENCODING 382
SWIDTH 430 0
DWIDTH 3 0
BBX 4 6 0 0
BITMAP
16
04
2A
18
60
A8
ENDCHAR
STARTCHAR florin
ENCODING 402
SWIDTH 466 0
DWIDTH 4 0
BBX 7 9 -2 -2
BITMAP
0024
0098
0194
02D0
0300
0200
0500
0800
6800
ENDCHAR
STARTCHAR AEacute
ENCODING 508
SWIDTH 878 0
DWIDTH 7 0
BBX 9 8 -1 0
BITMAP
000500
000400
00AA40
017540
022100
0AB800
149000
606900
ENDCHAR
STARTCHAR aeacute
ENCODING 509
SWIDTH 770 0
DWIDTH 6 0
BBX 6 7 0 0
BITMAP
0040
0180
0100
1AA0
6370
9A40
6690
ENDCHAR
STARTCHAR Scommaaccent
ENCODING 536
SWIDTH 474 0
DWIDTH 4 0
BBX 5 8 0 -2
BITMAP
1A00
3140
3200
2400
4800
A400
1000
5000
ENDCHAR
STARTCHAR scommaaccent
ENCODING 537
SWIDTH 423 0
DWIDTH 3 0
BBX 4 6 0 -2
BITMAP
29
24
24
A4
50
40
ENDCHAR
STARTCHAR dotlessj
ENCODING 567
SWIDTH 277 0
DWIDTH 2 0
BBX 3 6 -1 -2
BITMAP
0C
08
14
20
60
80
ENDCHAR
STARTCHAR circumflex
ENCODING 710
SWIDTH 354 0
DWIDTH 3 0
BBX 3 2 0 4
BITMAP
14
58
ENDCHAR
STARTCHAR caron
ENCODING 711
SWIDTH 381 0
DWIDTH 3 0
BBX 3 2 0 4
BITMAP
58
10
ENDCHAR
STARTCHAR breve
ENCODING 728
SWIDTH 344 0
DWIDTH 3 0
BBX 3 2 0 4
BITMAP
84
64
ENDCHAR
STARTCHAR dotaccent
ENCODING 729
SWIDTH 217 0
DWIDTH 2 0
BBX 2 1 0 5
BITMAP
60
ENDCHAR
STARTCHAR ring
ENCODING 730
SWIDTH 402 0
DWIDTH 3 0
BBX 2 2 1 4
BITMAP
A0
50
ENDCHAR
STARTCHAR ogonek
ENCODING 731
SWIDTH 311 0
DWIDTH 3 0
BBX 2 3 0 -2
BITMAP
10
50
50
ENDCHAR
STARTCHAR tilde
ENCODING 732
SWIDTH 397 0
DWIDTH 3 0
BBX 4 1 0 5
BITMAP
69
ENDCHAR
STARTCHAR hungarumlaut
ENCODING 733
SWIDTH 392 0
DWIDTH 3 0
BBX 3 2 0 4
BITMAP
24
58
ENDCHAR
STARTCHAR pi
ENCODING 960
SWIDTH 640 0
DWIDTH 5 0
BBX 5 4 0 0
BITMAP
6B80
2200
2200
8200
ENDCHAR
STARTCHAR uni1E02
ENCODING 7682
SWIDTH 551 0
DWIDTH 4 0
BBX 5 8 0 0
BITMAP
0100
0200
2A40
2480
3240
7A00
9200
6900
ENDCHAR
STARTCHAR uni1E03
ENCODING 7683
SWIDTH 525 0
DWIDTH 4 0
BBX 5 6 0 0
BITMAP
2640
2000
3A00
6300
8600
6800
ENDCHAR
STARTCHAR uni1E0A
ENCODING 7690
SWIDTH 630 0
DWIDTH 5 0
BBX 5 8 0 0
BITMAP
0100
0200
2A40
1480
2480
6180
5200
6800
ENDCHAR
STARTCHAR uni1E0B
ENCODING 7691
SWIDTH 557 0
DWIDTH 4 0
BBX 5 7 0 0
BITMAP
0040
1880
0180
1B40
6200
9A00
6600
ENDCHAR
STARTCHAR uni1E1E
ENCODING 7710
SWIDTH 518 0
DWIDTH 4 0
BBX 5 8 0 0
BITMAP
0100
0100
6A80
4800
0800
2900
2000
5000
ENDCHAR
STARTCHAR uni1E1F
ENCODING 7711
SWIDTH 393 0
DWIDTH 3 0
BBX 5 9 0 -1
BITMAP
0900
0600
0A40
1400
7900
2000
5000
8000
8000
ENDCHAR
STARTCHAR uni1E40
ENCODING 7744
SWIDTH 931 0
DWIDTH 7 0
BBX 9 8 -1 0
BITMAP
000400
000500
009240
029A00
05D600
09A500
21D900
518600
ENDCHAR
STARTCHAR uni1E41
ENCODING 7745
SWIDTH 814 0
DWIDTH 7 0
BBX 6 6 0 0
BITMAP
0180
0000
3670
3660
9660
8860
ENDCHAR
STARTCHAR uni1E56
ENCODING 7766
SWIDTH 553 0
DWIDTH 4 0
BBX 5 8 0 0
BITMAP
0100
0140
2A40
18C0
2640
3900
5000
8000
ENDCHAR
STARTCHAR uni1E57
ENCODING 7767
SWIDTH 550 0
DWIDTH 4 0
BBX 5 8 -1 -2
BITMAP
0240
0000
0A80
1CC0
2580
2A00
2000
5000
ENDCHAR
STARTCHAR uni1E60
ENCODING 7776
SWIDTH 474 0
DWIDTH 4 0
BBX 5 8 0 0
BITMAP
0100
0200
1A00
3140
3200
2400
4800
A400
ENDCHAR
STARTCHAR uni1E61
ENCODING 7777
SWIDTH 423 0
DWIDTH 3 0
BBX 4 6 0 0
BITMAP
09
00
29
24
24
A4
ENDCHAR
STARTCHAR uni1E6A
ENCODING 7786
SWIDTH 430 0
DWIDTH 3 0
BBX 5 8 0 0
BITMAP
0100
0200
6E40
4800
0800
1400
2000
5000
ENDCHAR
STARTCHAR uni1E6B
ENCODING 7787
SWIDTH 358 0
DWIDTH 3 0
BBX 3 6 0 0
BITMAP
08
18
38
20
50
64
ENDCHAR
STARTCHAR Wgrave
ENCODING 7808
SWIDTH 941 0
DWIDTH 8 0
BBX 8 8 0 0
BITMAP
0080
0010
2802
1853
26C2
2645
6A48
61A0
ENDCHAR
STARTCHAR wgrave
ENCODING 7809
SWIDTH 750 0
DWIDTH 6 0
BBX 6 6 0 0
BITMAP
0200
0100
3220
2620
5950
9640
ENDCHAR
STARTCHAR Wacute
ENCODING 7810
SWIDTH 941 0
DWIDTH 8 0
BBX 8 8 0 0
BITMAP
0014
0010
2802
1853
26C2
2645
6A48
61A0
ENDCHAR
STARTCHAR wacute
ENCODING 7811
SWIDTH 750 0
DWIDTH 6 0
BBX 6 7 0 0
BITMAP
0040
0140
0100
3220
2620
5950
9640
ENDCHAR
STARTCHAR Wdieresis
ENCODING 7812
SWIDTH 941 0
DWIDTH 8 0
BBX 8 8 0 0
BITMAP
0044
0094
2802
1853
26C2
2645
6A48
61A0
ENDCHAR
STARTCHAR wdieresis
ENCODING 7813
SWIDTH 750 0
DWIDTH 6 0
BBX 6 6 0 0
BITMAP
0990
0000
3220
2620
5950
9640
ENDCHAR
STARTCHAR Ygrave
ENCODING 7922
SWIDTH 580 0
DWIDTH 5 0
BBX 6 10 0 -2
BITMAP
0200
0100
1850
24C0
2180
5340
8A00
A500
0800
6000
ENDCHAR
STARTCHAR ygrave
ENCODING 7923
SWIDTH 549 0
DWIDTH 4 0
BBX 5 8 0 -2
BITMAP
0900
0500
3240
2300
9A00
A900
0800
2000
ENDCHAR
STARTCHAR endash
ENCODING 8211
SWIDTH 751 0
DWIDTH 6 0
BBX 5 1 1 2
BITMAP
AA40
ENDCHAR
STARTCHAR emdash
ENCODING 8212
SWIDTH 1066 0
DWIDTH 9 0
BBX 7 1 1 2
BITMAP
AAA8
ENDCHAR
STARTCHAR quoteleft
ENCODING 8216
SWIDTH 268 0
DWIDTH 2 0
BBX 1 2 1 5
BITMAP
40
80
ENDCHAR
STARTCHAR quoteright
ENCODING 8217
SWIDTH 268 0
DWIDTH 2 0
BBX 2 2 1 4
BITMAP
50
50
ENDCHAR
STARTCHAR quotesinglbase
ENCODING 8218
SWIDTH 268 0
DWIDTH 2 0
BBX 2 2 0 -1
BITMAP
50
80
ENDCHAR
STARTCHAR quotedblleft
ENCODING 8220
SWIDTH 485 0
DWIDTH 4 0
BBX 3 2 1 5
BITMAP
58
98
ENDCHAR
STARTCHAR quotedblright
ENCODING 8221
SWIDTH 480 0
DWIDTH 4 0
BBX 3 2 1 5
BITMAP
68
58
ENDCHAR
STARTCHAR quotedblbase
ENCODING 8222
SWIDTH 463 0
DWIDTH 4 0
BBX 3 2 0 -1
BITMAP
58
94
ENDCHAR
STARTCHAR dagger
ENCODING 8224
SWIDTH 488 0
DWIDTH 4 0
BBX 3 6 1 0
BITMAP
24
B8
60
50
80
40
ENDCHAR
STARTCHAR daggerdbl
ENCODING 8225
SWIDTH 488 0
DWIDTH 4 0
BBX 3 6 1 0
BITMAP
24
78
60
A0
80
40
ENDCHAR
STARTCHAR bullet
ENCODING 8226
SWIDTH 437 0
DWIDTH 4 0
BBX 2 2 1 2
BITMAP
A0
90
ENDCHAR
STARTCHAR ellipsis
ENCODING 8230
SWIDTH 810 0
DWIDTH 6 0
BBX 6 1 0 0
BITMAP
9960
ENDCHAR
STARTCHAR perthousand
ENCODING 8240
SWIDTH 1184 0
DWIDTH 9 0
BBX 9 6 0 0
BITMAP
285000
598000
260000
055140
096980
219640
ENDCHAR
STARTCHAR guilsinglleft
ENCODING 8249
SWIDTH 413 0
DWIDTH 3 0
BBX 3 3 0 1
BITMAP
14
60
24
ENDCHAR
STARTCHAR guilsinglright
ENCODING 8250
SWIDTH 416 0
DWIDTH 3 0
BBX 3 3 0 1
BITMAP
20
18
50
ENDCHAR
STARTCHAR fraction
ENCODING 8260
SWIDTH 580 0
DWIDTH 5 0
BBX 5 7 0 0
BITMAP
0040
0200
0500
0800
1400
2000
8000
ENDCHAR
STARTCHAR Euro
ENCODING 8364
SWIDTH 622 0
DWIDTH 5 0
BBX 5 6 0 0
BITMAP
0680
1880
3900
7800
3000
1A00
ENDCHAR
STARTCHAR trademark
ENCODING 8482
SWIDTH 1084 0
DWIDTH 9 0
BBX 7 3 1 3
BITMAP
6998
22A8
25D8
ENDCHAR
STARTCHAR Omega
ENCODING 8486
SWIDTH 839 0
DWIDTH 7 0
BBX 7 6 0 0
BITMAP
1980
2020
6030
6030
2060
68E4
ENDCHAR
STARTCHAR partialdiff
ENCODING 8706
SWIDTH 580 0
DWIDTH 5 0
BBX 5 7 0 0
BITMAP
0500
0940
0580
2240
9300
8600
6800
ENDCHAR
STARTCHAR Delta
ENCODING 8710
SWIDTH 663 0
DWIDTH 5 0
BBX 5 5 0 0
BITMAP
0500
1A00
2200
5180
95C0
ENDCHAR
STARTCHAR product
ENCODING 8719
SWIDTH 667 0
DWIDTH 5 0
BBX 5 7 0 -1
BITMAP
6580
5080
5080
5080
5080
5080
5040
ENDCHAR
STARTCHAR summation
ENCODING 8721
SWIDTH 677 0
DWIDTH 5 0
BBX 5 7 0 -1
BITMAP
3540
2400
0C00
0900
1400
6000
6A40
ENDCHAR
STARTCHAR minus
ENCODING 8722
SWIDTH 617 0
DWIDTH 5 0
BBX 3 2 1 2
BITMAP
54
54
ENDCHAR
STARTCHAR radical
ENCODING 8730
SWIDTH 709 0
DWIDTH 6 0
BBX 7 8 0 0
BITMAP
0004
0020
0060
0080
7180
2600
1900
0800
ENDCHAR
STARTCHAR infinity
ENCODING 8734
SWIDTH 681 0
DWIDTH 5 0
BBX 5 3 0 1
BITMAP
6A80
5A80
1000
ENDCHAR
STARTCHAR integral
ENCODING 8747
SWIDTH 583 0
DWIDTH 5 0
BBX 7 10 -1 -2
BITMAP
0010
0098
0194
0240
0200
0200
0500
5800
9800
5000
ENDCHAR
STARTCHAR approxequal
ENCODING 8776
SWIDTH 671 0
DWIDTH 5 0
BBX 5 4 0 1
BITMAP
1440
5A80
1440
5A40
ENDCHAR
STARTCHAR notequal
ENCODING 8800
SWIDTH 617 0
DWIDTH 5 0
BBX 4 6 1 0
BITMAP
04
08
B9
75
80
40
ENDCHAR
STARTCHAR lessequal
ENCODING 8804
SWIDTH 704 0
DWIDTH 6 0
BBX 5 5 0 0
BITMAP
0600
6400
2800
0240
6A40
ENDCHAR
STARTCHAR greaterequal
ENCODING 8805
SWIDTH 617 0
DWIDTH 5 0
BBX 5 5 0 0
BITMAP
2400
0640
0900
5000
6A40
ENDCHAR
STARTCHAR lozenge
ENCODING 9674
SWIDTH 580 0
DWIDTH 5 0
BBX 4 6 0 0
BITMAP
18
25
52
52
25
18
ENDCHAR
STARTCHAR commaaccent
ENCODING 63171
SWIDTH 250 0
DWIDTH 2 0
BBX 2 2 0 -2
BITMAP
50
50
ENDCHAR
STARTCHAR ff
ENCODING 64256
SWIDTH 773 0
DWIDTH 6 0
BBX 8 8 0 -1
BITMAP
0618
0A69
1450
6AE0
2080
5180
8240
8200
ENDCHAR
STARTCHAR fi
ENCODING 64257
SWIDTH 623 0
DWIDTH 5 0
BBX 5 8 0 -1
BITMAP
0140
0880
1480
6A80
6140
6200
9240
8000
ENDCHAR
STARTCHAR fl
ENCODING 64258
SWIDTH 637 0
DWIDTH 5 0
BBX 6 8 0 -1
BITMAP
0280
0890
1480
7980
2140
6200
9240
8000
ENDCHAR
STARTCHAR .notdef
ENCODING -1
SWIDTH 896 0
DWIDTH 7 0
BBX 8 7 0 0
BITMAP
0BFE
0EEE
1CAD
2DBC
3978
7B64
7FF0
ENDCHAR
ENDFONT
